<svg version="1" xmlns="http://www.w3.org/2000/svg" width="833.333" height="833.333" viewBox="0 0 625.000000 625.000000"><path d="M285.5 1.1C264 2.5 237 8 213.1 16.1c-31.8 10.6-60.7 25.8-88.6 46.5C105.1 76.9 77 105.1 62.9 124c-33.1 44.7-51.8 89.7-60.6 146C.8 279.4.5 287.1.6 312c.1 31.5.6 37.6 5 60.5 5.2 26.9 13.5 51.6 26.4 78 26 53.3 67.6 98.8 118.1 129.3 37.5 22.6 75.1 35.7 124.4 43.3 12.8 2 63.2 1.7 78-.5 40.2-5.9 66.6-14.1 102-31.8 17.6-8.9 28.9-15.7 43-26.2 30.6-22.8 54.5-47.8 75.2-78.8 11.1-16.7 28.5-51.2 34.3-68.3 13.2-38.6 19.1-76.3 17.6-113.6-2.3-61.1-19.6-115.5-52.1-164.4-31.5-47.3-73.3-83.8-124-108.4-50.7-24.6-101.2-33.9-163-30zM205 247c6.3 1.9 15.6 7.2 21.1 12.2 1.4 1.2 4.8 4.9 7.5 8.2l4.8 5.8 2.6-3.3c8.9-11.9 18.2-18.9 29.9-22.6 6.7-2.2 9-2.4 19.1-2.1 13.8.5 20 2.6 29.3 9.7 7.7 5.9 13.6 14.5 17.2 24.7 2.4 7.1 2.8 9.9 3.5 28.4.5 11.3.9 32.1.9 46.2l.1 25.8h-35.7l-.6-40.8c-.8-45.2-1-46.7-7.5-54.3-5.3-6.2-10.3-8.3-19.7-8.4-13.5 0-21.3 5.2-29.4 19.6l-3.1 5.6V380h-36v-29.8c-.1-38.9-1-51.7-4.5-58.8-5.2-10.5-15.8-16.3-27.7-15-10.5 1.1-18.6 6.9-24.1 17.4l-3.7 7V380h-37V246h37v9.8c0 5.4.3 10.1.6 10.5.3.3 2.8-2 5.4-5.2 7.5-9 17.2-14.4 29-16.1 6.9-1 12.7-.4 21 2zm207.9 38c18.6 42.6 21.1 48 22.4 48 1.1 0 10-18.8 26.8-56.8l13.4-30.2h17.1c9.4 0 17.3.3 17.6.6.3.3-1.9 6-4.9 12.7-13 29-43.9 98.2-48.6 108.9l-5.2 11.8h-15.6c-11.3 0-15.9-.3-16.6-1.3-2.4-3-58.4-130.7-57.8-131.7.4-.7 6.4-1 17.7-.8l17 .3 16.7 38.5z"/></svg>